<svg xmlns="http://www.w3.org/2000/svg" width="1400" height="940" viewBox="0 0 1400 940" font-family="DejaVu Sans,Arial,sans-serif"><rect width="100%" height="100%" fill="#fff"/><rect x="85" y="40" width="230" height="560" rx="14" fill="#fdecea" stroke="none"/><text x="97" y="62" font-size="14" fill="#444" text-anchor="start" font-weight="700">1. PENGAMAN</text><rect x="325" y="120" width="505" height="780" rx="14" fill="#eaf4fd" stroke="none"/><text x="337" y="142" font-size="14" fill="#444" text-anchor="start" font-weight="700">2. CATU KAPASITOR (tanpa trafo)</text><rect x="915" y="120" width="180" height="300" rx="14" fill="#eefbea" stroke="none"/><text x="927" y="142" font-size="14" fill="#444" text-anchor="start" font-weight="700">3. DETEKTOR ZC</text><rect x="1105" y="120" width="270" height="520" rx="14" fill="#fff6e0" stroke="none"/><text x="1117" y="142" font-size="14" fill="#444" text-anchor="start" font-weight="700">4. TRIAC + BOHLAM</text><rect x="915" y="590" width="190" height="240" rx="14" fill="#f1ecfb" stroke="none"/><text x="927" y="612" font-size="14" fill="#444" text-anchor="start" font-weight="700">5. OTAK</text><polyline points="40,90 130,90" fill="none" stroke="#222" stroke-width="2.2"/><rect x="130" y="64" width="110" height="52" rx="7" fill="#fff" stroke="#222" stroke-width="2"/><text x="185.0" y="86.5" text-anchor="middle" font-size="15" font-weight="700">F1</text><text x="185.0" y="103.5" text-anchor="middle" font-size="13" font-weight="400">47Ω 2W fusible</text><polyline points="240,90 1290,90" fill="none" stroke="#222" stroke-width="2.2"/><text x="30" y="116" font-size="16" fill="#c0392b" text-anchor="start" font-weight="700">L (fasa)</text><circle cx="260" cy="90" r="5" fill="#222"/><circle cx="380" cy="90" r="5" fill="#222"/><circle cx="1000" cy="90" r="5" fill="#222"/><polyline points="40,560 1260,560" fill="none" stroke="#222" stroke-width="2.2"/><text x="30" y="548" font-size="16" fill="#1f5fa8" text-anchor="start" font-weight="700">N (netral) = rel +7,5V</text><polyline points="380,800 1240,800" fill="none" stroke="#222" stroke-width="2.2"/><text x="380" y="828" font-size="15" fill="#333" text-anchor="start" font-weight="700">GND sirkuit (7,5V di bawah N)</text><polyline points="260,90 260,280" fill="none" stroke="#222" stroke-width="2.2"/><rect x="205" y="280" width="110" height="60" rx="7" fill="#fff" stroke="#222" stroke-width="2"/><text x="260.0" y="306.5" text-anchor="middle" font-size="15" font-weight="700">MOV</text><text x="260.0" y="323.5" text-anchor="middle" font-size="13" font-weight="400">7D471K</text><polyline points="260,340 260,560" fill="none" stroke="#222" stroke-width="2.2"/><circle cx="260" cy="560" r="5" fill="#222"/><polyline points="380,90 380,150" fill="none" stroke="#222" stroke-width="2.2"/><rect x="330" y="150" width="100" height="82" rx="7" fill="#fff" stroke="#222" stroke-width="2"/><text x="380.0" y="179.0" text-anchor="middle" font-size="15" font-weight="700">C1  1,5µF</text><text x="380.0" y="196.0" text-anchor="middle" font-size="13" font-weight="400">X2 310VAC</text><text x="380.0" y="213.0" text-anchor="middle" font-size="13" font-weight="400">‖ 2×470k</text><polyline points="380,232 380,320" fill="none" stroke="#222" stroke-width="2.2"/><circle cx="380" cy="320" r="5" fill="#222"/><text x="395" y="316" font-size="15" fill="#222" text-anchor="start" font-weight="700">A</text><polyline points="380,320 380,400" fill="none" stroke="#222" stroke-width="2.2"/><rect x="332" y="400" width="96" height="70" rx="7" fill="#fff" stroke="#222" stroke-width="2"/><text x="380.0" y="431.5" text-anchor="middle" font-size="15" font-weight="700">D2 1N4007</text><text x="380.0" y="448.5" text-anchor="middle" font-size="13" font-weight="400">▼ A ke N</text><polyline points="380,470 380,560" fill="none" stroke="#222" stroke-width="2.2"/><circle cx="380" cy="560" r="5" fill="#222"/><polyline points="380,320 480,320" fill="none" stroke="#222" stroke-width="2.2"/><path d="M480,320 L480,551 A9,9 0 0 1 480,569 L480,640" fill="none" stroke="#222" stroke-width="2.2"/><rect x="432" y="640" width="96" height="70" rx="7" fill="#fff" stroke="#222" stroke-width="2"/><text x="480.0" y="671.5" text-anchor="middle" font-size="15" font-weight="700">D1 1N4007</text><text x="480.0" y="688.5" text-anchor="middle" font-size="13" font-weight="400">▲ GND ke A</text><polyline points="480,710 480,800" fill="none" stroke="#222" stroke-width="2.2"/><circle cx="480" cy="800" r="5" fill="#222"/><polyline points="590,560 590,640" fill="none" stroke="#222" stroke-width="2.2"/><rect x="535" y="640" width="110" height="70" rx="7" fill="#fff" stroke="#222" stroke-width="2"/><text x="590.0" y="671.5" text-anchor="middle" font-size="15" font-weight="700">ZD1 7V5 1W</text><text x="590.0" y="688.5" text-anchor="middle" font-size="13" font-weight="400">katoda di N</text><polyline points="590,710 590,800" fill="none" stroke="#222" stroke-width="2.2"/><circle cx="590" cy="560" r="5" fill="#222"/><circle cx="590" cy="800" r="5" fill="#222"/><polyline points="697,560 697,640" fill="none" stroke="#222" stroke-width="2.2"/><rect x="650" y="640" width="95" height="70" rx="7" fill="#fff" stroke="#222" stroke-width="2"/><text x="697.5" y="671.5" text-anchor="middle" font-size="15" font-weight="700">C2 1000µF</text><text x="697.5" y="688.5" text-anchor="middle" font-size="13" font-weight="400">16V 105°C</text><polyline points="697,710 697,800" fill="none" stroke="#222" stroke-width="2.2"/><circle cx="697" cy="560" r="5" fill="#222"/><circle cx="697" cy="800" r="5" fill="#222"/><polyline points="780,560 780,640" fill="none" stroke="#222" stroke-width="2.2"/><circle cx="780" cy="560" r="5" fill="#222"/><rect x="745" y="640" width="75" height="80" rx="7" fill="#fff" stroke="#222" stroke-width="2"/><text x="782.5" y="668.0" text-anchor="middle" font-size="15" font-weight="700">U1</text><text x="782.5" y="685.0" text-anchor="middle" font-size="13" font-weight="400">HT7833</text><text x="782.5" y="702.0" text-anchor="middle" font-size="13" font-weight="400">LDO 3,3V</text><polyline points="782,720 782,800" fill="none" stroke="#222" stroke-width="2.2"/><circle cx="782" cy="800" r="5" fill="#222"/><polyline points="820,680 880,680" fill="none" stroke="#222" stroke-width="2.2"/><text x="822" y="672" font-size="13" fill="#7a3fb0" text-anchor="start" font-weight="700">3V3</text><text x="752" y="632" font-size="12" fill="#222" text-anchor="start" font-weight="400">IN</text><text x="752" y="736" font-size="12" fill="#222" text-anchor="start" font-weight="400">GND</text><polyline points="880,680 930,680" fill="none" stroke="#222" stroke-width="2.2"/><rect x="930" y="620" width="160" height="150" rx="7" fill="#fff" stroke="#222" stroke-width="2"/><text x="1010.0" y="674.5" text-anchor="middle" font-size="15" font-weight="700">ESP8285</text><text x="1010.0" y="691.5" text-anchor="middle" font-size="13" font-weight="400">(modul ESP-M3)</text><text x="1010.0" y="708.5" text-anchor="middle" font-size="13" font-weight="400">3V3 ← dari U1</text><text x="1010.0" y="725.5" text-anchor="middle" font-size="13" font-weight="400">GND ke GND</text><polyline points="1010,770 1010,800" fill="none" stroke="#222" stroke-width="2.2"/><circle cx="1010" cy="800" r="5" fill="#222"/><polyline points="1000,90 1000,150" fill="none" stroke="#222" stroke-width="2.2"/><rect x="950" y="150" width="100" height="70" rx="7" fill="#fff" stroke="#222" stroke-width="2"/><text x="1000.0" y="181.5" text-anchor="middle" font-size="15" font-weight="700">R 3×680k</text><text x="1000.0" y="198.5" text-anchor="middle" font-size="13" font-weight="400">seri (1206)</text><polyline points="1000,220 1000,280" fill="none" stroke="#222" stroke-width="2.2"/><rect x="930" y="280" width="150" height="110" rx="7" fill="#fff" stroke="#222" stroke-width="2"/><text x="1005.0" y="314.5" text-anchor="middle" font-size="15" font-weight="700">Q3 S8050</text><text x="1005.0" y="331.5" text-anchor="middle" font-size="13" font-weight="400">basis: 100k+1N4148</text><text x="1005.0" y="348.5" text-anchor="middle" font-size="13" font-weight="400">kolektor: 10k ke 3V3</text><text x="1005.0" y="365.5" text-anchor="middle" font-size="13" font-weight="400">emitor: GND</text><path d="M1060,390 L1060,551 A9,9 0 0 1 1060,569 L1060,620" fill="none" stroke="#2a8a3a" stroke-width="2.4" stroke-dasharray="7 4"/><text x="1066" y="600" font-size="13" fill="#2a8a3a" text-anchor="start" font-weight="700">→ GPIO4</text><path d="M950,390 L950,551 A9,9 0 0 1 950,569 L950,600 L905,600 L905,780 L905,800" fill="none" stroke="#222" stroke-width="2.2"/><circle cx="905" cy="800" r="5" fill="#222"/><text x="912" y="470" font-size="12" fill="#555" text-anchor="start" font-weight="400">emitor</text><polyline points="1290,90 1290,170" fill="none" stroke="#222" stroke-width="2.2"/><circle cx="1290" cy="210" r="38" fill="#fff4c2" stroke="#222" stroke-width="2"/><path d="M1263,183 L1317,237 M1317,183 L1263,237" stroke="#222" stroke-width="2"/><text x="1290" y="272" font-size="14" fill="#222" text-anchor="middle" font-weight="700">BOHLAM</text><text x="1290" y="288" font-size="12" fill="#555" text-anchor="middle" font-weight="400">(fitting keluar)</text><polyline points="1290,248 1290,330" fill="none" stroke="#222" stroke-width="2.2"/><rect x="1235" y="330" width="110" height="100" rx="7" fill="#fff" stroke="#222" stroke-width="2"/><text x="1290.0" y="359.5" text-anchor="middle" font-size="15" font-weight="700">TRIAC</text><text x="1290.0" y="376.5" text-anchor="middle" font-size="13" font-weight="400">Z0109MN</text><text x="1290.0" y="393.5" text-anchor="middle" font-size="13" font-weight="400">MT2 atas</text><text x="1290.0" y="410.5" text-anchor="middle" font-size="13" font-weight="400">MT1 bawah</text><polyline points="1290,430 1290,560" fill="none" stroke="#222" stroke-width="2.2"/><polyline points="1260,560 1290,560" fill="none" stroke="#222" stroke-width="2.2"/><circle cx="1260" cy="560" r="5" fill="#222"/><polyline points="1235,395 1170,395 1170,440" fill="none" stroke="#222" stroke-width="2.2"/><text x="1200" y="388" font-size="12" fill="#555" text-anchor="middle" font-weight="400">GATE</text><rect x="1112" y="440" width="116" height="95" rx="7" fill="#fff" stroke="#222" stroke-width="2"/><text x="1170.0" y="467.0" text-anchor="middle" font-size="15" font-weight="700">Q2 S8050</text><text x="1170.0" y="484.0" text-anchor="middle" font-size="13" font-weight="400">470Ω ke GATE</text><text x="1170.0" y="501.0" text-anchor="middle" font-size="13" font-weight="400">1k GATE–MT1</text><text x="1170.0" y="518.0" text-anchor="middle" font-size="13" font-weight="400">emitor: GND</text><path d="M1135,535 L1135,551 A9,9 0 0 1 1135,569 L1135,800" fill="none" stroke="#222" stroke-width="2.2"/><circle cx="1135" cy="800" r="5" fill="#222"/><path d="M1090,700 L1205,700 L1205,569 A9,9 0 0 0 1205,551 L1205,535" fill="none" stroke="#b5651d" stroke-width="2.4" stroke-dasharray="7 4"/><text x="1098" y="692" font-size="13" fill="#b5651d" text-anchor="start" font-weight="700">GPIO5 → basis Q2</text><text x="40" y="860" font-size="14" fill="#333" text-anchor="start" font-weight="400">Arus catu: ±41 mA (198V) – ±50 mA (240V). Kebutuhan ESP rata-rata 20–30 mA; lonjakan WiFi ditanggung C2.</text><text x="40" y="882" font-size="14" fill="#333" text-anchor="start" font-weight="400">Lengkung kecil = kabel menyilang, TIDAK tersambung. Titik hitam = tersambung.</text><text x="40" y="904" font-size="14" fill="#c0392b" text-anchor="start" font-weight="700">⚠ Non-isolasi: SELURUH papan bertegangan PLN walau rel tertulis 7,5V/3,3V. Jangan disentuh/di-flash saat tercolok.</text><text x="700.0" y="26" font-size="20" fill="#111" text-anchor="middle" font-weight="700">Fitting Lampu Pintar — Skema v1 (220V → 3,3V tanpa trafo/induktor + dimmer TRIAC)</text></svg>